<?xml version="1.0" standalone="no"?>
<!DOCTYPE svg PUBLIC "-//W3C//DTD SVG 20010904//EN"
 "http://www.w3.org/TR/2001/REC-SVG-20010904/DTD/svg10.dtd">
<svg version="1.0" xmlns="http://www.w3.org/2000/svg"
 width="250.000000pt" height="250.000000pt" viewBox="0 0 250.000000 250.000000"
 preserveAspectRatio="xMidYMid meet">

<g transform="translate(0.000000,250.000000) scale(0.100000,-0.100000)"
fill="#000000" stroke="none">
<path d="M1316 2229 c-110 -146 -172 -283 -182 -402 -7 -76 17 -242 46 -319
45 -120 117 -181 190 -159 44 13 114 84 137 139 72 171 67 364 -14 511 -19 36
-51 93 -69 127 -18 33 -40 84 -47 113 l-14 53 -47 -63z"/>
<path d="M711 1520 c-30 -11 -57 -22 -60 -26 -3 -3 18 -28 47 -55 42 -38 69
-54 125 -71 40 -12 90 -29 112 -39 28 -13 65 -19 122 -19 l81 0 -18 47 c-43
114 -136 174 -275 180 -62 3 -92 -1 -134 -17z"/>
<path d="M1677 1442 c-91 -32 -177 -122 -177 -186 0 -20 9 -30 40 -46 21 -11
55 -20 74 -20 48 0 162 37 208 67 47 31 145 162 126 167 -30 10 -180 36 -201
36 -12 -1 -44 -9 -70 -18z"/>
<path d="M940 1225 c-231 -35 -329 -72 -399 -151 -20 -23 -61 -86 -91 -140
-29 -55 -67 -118 -82 -141 l-29 -43 48 0 c26 0 94 -11 151 -25 151 -37 202
-34 298 15 207 104 454 349 415 412 -6 10 -11 24 -11 31 0 8 -9 22 -20 32 -27
25 -152 29 -280 10z"/>
<path d="M1495 1102 c-68 -10 -68 -10 -61 -55 23 -152 171 -297 374 -366 112
-38 159 -37 329 6 l152 39 -33 50 c-18 27 -55 83 -82 124 -84 127 -174 176
-349 191 -116 9 -301 16 -330 11z"/>
<path d="M1259 939 c-74 -46 -122 -137 -149 -282 -19 -104 -9 -185 40 -313
l42 -112 62 70 c148 170 176 228 176 372 0 139 -32 228 -98 274 -27 19 -27 19
-73 -9z"/>
</g>
</svg>
